<svg width="145" height="50" viewBox="0 0 145 50" fill="none" xmlns="http://www.w3.org/2000/svg">
<path fill-rule="evenodd" clip-rule="evenodd" d="M142.732 2.78316C142.493 2.58518 142.123 2.48553 141.625 2.48553H140.005V6.67597H140.656V4.87314H141.347L142.488 6.67597H143.188L141.99 4.82593C142.302 4.79316 142.564 4.68957 142.775 4.51388C142.986 4.33819 143.092 4.06153 143.092 3.68523C143.092 3.2814 142.972 2.98115 142.732 2.78316ZM141.754 4.33163C141.624 4.34212 141.483 4.34605 141.337 4.34605H140.656V3.01393H141.519C141.628 3.01393 141.738 3.02179 141.851 3.03753C141.962 3.05326 142.06 3.08473 142.147 3.128C142.233 3.17389 142.304 3.23813 142.358 3.32073C142.412 3.40334 142.439 3.51478 142.439 3.65508C142.439 3.82159 142.409 3.9514 142.349 4.04449C142.287 4.13758 142.206 4.20576 142.104 4.25034C142.001 4.29492 141.885 4.32245 141.754 4.33163Z" fill="#0b70f4"/>
<path fill-rule="evenodd" clip-rule="evenodd" d="M138.859 2.02663C138.529 2.34524 138.269 2.72285 138.077 3.15684C137.886 3.59214 137.79 4.06153 137.79 4.56633C137.79 5.08423 137.886 5.5628 138.077 5.99941C138.269 6.43734 138.529 6.81888 138.859 7.14142C139.188 7.46397 139.572 7.7144 140.008 7.89402C140.448 8.07234 140.912 8.16281 141.405 8.16281C141.896 8.16281 142.359 8.07234 142.795 7.89402C143.229 7.7144 143.609 7.46397 143.935 7.14142C144.262 6.81888 144.52 6.43734 144.712 5.99941C144.904 5.5628 145 5.08423 145 4.56633C145 4.06153 144.904 3.59214 144.712 3.15684C144.52 2.72285 144.262 2.34524 143.935 2.02663C143.609 1.70671 143.229 1.45497 142.795 1.27272C142.359 1.09047 141.896 1 141.405 1C140.912 1 140.448 1.09047 140.008 1.27272C139.572 1.45497 139.188 1.70671 138.859 2.02663ZM139.29 6.7625C139.025 6.48716 138.817 6.16331 138.667 5.78963C138.516 5.41464 138.442 5.00818 138.442 4.56633C138.442 4.13889 138.516 3.73899 138.667 3.36794C138.817 2.99688 139.025 2.67565 139.29 2.40424C139.555 2.13283 139.868 1.91912 140.23 1.76178C140.591 1.60575 140.983 1.52708 141.405 1.52708C141.819 1.52708 142.206 1.60575 142.564 1.76178C142.922 1.91912 143.234 2.13283 143.499 2.40424C143.765 2.67565 143.972 2.99688 144.123 3.36794C144.272 3.73899 144.348 4.13889 144.348 4.56633C144.348 5.00818 144.272 5.41464 144.123 5.78963C143.972 6.16331 143.765 6.48716 143.499 6.7625C143.234 7.03653 142.922 7.25287 142.564 7.41021C142.206 7.56624 141.819 7.64491 141.405 7.64491C140.983 7.64491 140.591 7.56624 140.23 7.41021C139.868 7.25287 139.555 7.03653 139.29 6.7625Z" fill="#0b70f4"/>
<path fill-rule="evenodd" clip-rule="evenodd" d="M11.2404 35.2928L21.1958 5.47484H36.4564C39.2855 5.47484 41.3672 5.71928 42.6994 6.20753C44.0323 6.69578 44.9361 7.60087 45.4108 8.92281C45.8856 10.2448 45.8064 11.8549 45.1728 13.7532C44.6209 15.4077 43.7936 16.8352 42.6917 18.0349C41.5897 19.2352 40.3006 20.2079 38.8256 20.9534C37.8851 21.4288 36.6815 21.8219 35.2155 22.1332C36.1836 22.4999 36.843 22.8807 37.2321 23.2326C38.0453 23.9678 38.6409 25.4397 38.8371 26.6529L40.3868 35.2928H30.0409L28.1889 26.1807C27.9631 25.001 27.6659 24.2355 27.2993 23.8823C26.7924 23.4217 26.1214 23.1908 25.2864 23.1908H24.4778L20.4374 35.2928H11.2404ZM26.3588 17.5569H30.2191C31.956 17.5569 33.4066 17.2803 34.5786 16.2144C35.1299 15.7133 35.5146 15.1363 35.732 14.4853C36.053 13.5229 35.9964 12.7838 35.5622 12.2685C35.128 11.7532 34.0756 11.4959 32.405 11.4959H28.3825L26.3588 17.5569Z" fill="#0b70f4"/>
<path fill-rule="evenodd" clip-rule="evenodd" d="M46.3854 20.4092C47.9492 15.7011 50.4638 12.0356 53.9291 9.41235C57.3938 6.7897 61.4414 5.47805 66.071 5.47805C70.8178 5.47805 74.0464 6.76654 75.7582 9.34352C77.4706 11.9205 77.5549 15.5306 76.0116 20.1731C74.8923 23.5439 73.4128 26.3075 71.5743 28.465C69.7364 30.6226 67.5577 32.3009 65.0386 33.5006C62.5195 34.701 59.6775 35.3012 56.5132 35.3012C53.2974 35.3012 50.8079 34.7827 49.0447 33.7463C47.2808 32.7107 46.1171 31.0716 45.5523 28.8285C44.9875 26.586 45.2654 23.78 46.3854 20.4092ZM55.1842 20.4485C54.2167 23.3599 54.0565 25.4519 54.7043 26.7237C55.3514 27.9961 56.5955 28.6323 58.4372 28.6323C60.3304 28.6323 62.0029 28.0089 63.4548 26.7629C64.9061 25.5175 66.1675 23.2815 67.2392 20.0548C68.1411 17.3401 68.2588 15.3569 67.5918 14.1044C66.9253 12.852 65.6645 12.2254 63.8099 12.2254C62.0332 12.2254 60.3954 12.8616 58.8965 14.134C57.3971 15.4058 56.16 17.5106 55.1842 20.4485Z" fill="#0b70f4"/>
<path d="M77.4281 25.1959L86.0211 24.6671C85.7438 26.0386 85.765 27.0832 86.0841 27.8011C86.6058 28.9642 87.7129 29.5451 89.4054 29.5451C90.6675 29.5451 91.7398 29.2479 92.6224 28.6535C93.505 28.0597 94.0775 27.3708 94.34 26.5866C94.5889 25.8424 94.4866 25.1766 94.0331 24.5886C93.5783 24.0006 92.2544 23.4461 90.0609 22.9231C86.4746 22.0489 84.097 20.8859 82.9295 19.4359C81.7484 17.9866 81.5348 16.1385 82.2868 13.8921C82.7809 12.4165 83.6737 11.0225 84.9667 9.70954C86.2591 8.39724 87.8866 7.36542 89.8499 6.61471C91.8125 5.86336 94.2846 5.48769 97.2656 5.48769C100.923 5.48769 103.484 6.17085 104.947 7.53525C106.409 8.90029 106.825 11.0714 106.192 14.0491L97.6908 14.5386C97.9018 13.2456 97.7519 12.3052 97.2392 11.7179C96.7265 11.1299 95.8459 10.8359 94.596 10.8359C93.5674 10.8359 92.7196 11.0546 92.0531 11.4927C91.3854 11.9301 90.9473 12.4621 90.7376 13.0893C90.5845 13.5461 90.661 13.9578 90.9679 14.3231C91.258 14.702 92.129 15.0545 93.5822 15.3807C97.1678 16.217 99.6535 17.0629 101.04 17.9184C102.427 18.7733 103.288 19.8348 103.626 21.1014C103.963 22.3686 103.87 23.7851 103.345 25.3528C102.728 27.1939 101.651 28.8921 100.115 30.4457C98.5798 32.0005 96.7664 33.179 94.6751 33.9824C92.5838 34.7859 90.1522 35.1873 87.3797 35.1873C82.5107 35.1873 79.4545 34.2468 78.2097 32.3659C76.965 30.4855 76.7044 28.0951 77.4281 25.1959Z" fill="#0b70f4"/>
<path d="M106.126 25.1959L114.718 24.6671C114.441 26.0386 114.462 27.0832 114.782 27.8011C115.304 28.9642 116.411 29.5451 118.103 29.5451C119.365 29.5451 120.438 29.2479 121.32 28.6535C122.202 28.0597 122.775 27.3708 123.038 26.5866C123.287 25.8424 123.185 25.1766 122.73 24.5886C122.276 24.0006 120.952 23.4461 118.758 22.9231C115.172 22.0489 112.795 20.8859 111.627 19.4359C110.446 17.9866 110.232 16.1385 110.985 13.8921C111.479 12.4165 112.372 11.0225 113.664 9.70954C114.956 8.39724 116.584 7.36542 118.548 6.61471C120.51 5.86336 122.982 5.48769 125.963 5.48769C129.621 5.48769 132.182 6.17085 133.644 7.53525C135.107 8.90029 135.523 11.0714 134.89 14.0491L126.388 14.5386C126.6 13.2456 126.45 12.3052 125.937 11.7179C125.424 11.1299 124.543 10.8359 123.293 10.8359C122.265 10.8359 121.418 11.0546 120.75 11.4927C120.083 11.9301 119.645 12.4621 119.435 13.0893C119.282 13.5461 119.359 13.9578 119.666 14.3231C119.955 14.702 120.827 15.0545 122.28 15.3807C125.865 16.217 128.351 17.0629 129.738 17.9184C131.124 18.7733 131.986 19.8348 132.323 21.1014C132.661 22.3686 132.567 23.7851 132.042 25.3528C131.426 27.1939 130.349 28.8921 128.813 30.4457C127.277 32.0005 125.464 33.179 123.373 33.9824C121.281 34.7859 118.85 35.1873 116.077 35.1873C111.208 35.1873 108.152 34.2468 106.908 32.3659C105.663 30.4855 105.402 28.0951 106.126 25.1959Z" fill="#0b70f4"/>
<path d="M0.21012 45.6895C0.0229251 45.5621 -0.153977 45.1215 0.219126 44.8622C0.316904 44.7941 0.432694 44.7194 0.662988 44.5882C1.43621 44.1488 3.36927 43.3267 10.7322 42.5876C20.3904 41.6175 103.475 41.0064 122.063 41.5481C127.257 41.6995 130.308 41.7652 132.139 41.8046C134.078 41.8463 134.647 41.8585 134.941 41.9122C135.221 41.963 135.345 42.4101 134.776 42.54C134.71 42.5558 134.639 42.5604 134.553 42.566L134.548 42.5664C133.722 42.6178 103.025 43.6805 71.822 44.7162C68.5939 44.8234 65.3556 44.9272 62.1417 45.0303C43.7883 45.6188 26.2307 46.1819 15.9152 47.1935C10.4055 47.7338 7.69532 48.5489 6.63005 49.2906C6.63005 49.2906 6.4049 49.4643 6.14502 49.3079C5.88578 49.1523 0.309185 45.757 0.21012 45.6895Z" fill="#0b70f4"/>
</svg>
